<?xml version="1.0" encoding="UTF-8" ?>
<!DOCTYPE svg PUBLIC "-//W3C//DTD SVG 1.1//EN" "http://www.w3.org/Graphics/SVG/1.1/DTD/svg11.dtd">
<svg width="800pt" height="531pt" viewBox="0 0 800 531" version="1.1" xmlns="http://www.w3.org/2000/svg">
<g id="#06060670">
<path fill="#060606" opacity="0.44" d=" M 424.92 21.50 C 433.16 21.25 441.43 19.09 449.66 20.52 C 457.88 23.34 466.52 24.51 474.97 26.33 C 480.49 28.81 486.69 29.16 492.16 31.82 C 498.08 35.06 504.70 36.57 510.99 38.91 C 517.33 41.52 523.59 44.33 530.00 46.80 C 536.72 50.80 544.30 53.06 551.10 56.93 C 562.18 60.34 572.10 66.42 582.32 71.71 C 584.78 73.97 588.32 74.12 591.01 75.99 C 595.79 78.86 600.82 81.39 605.35 84.64 C 616.19 93.32 629.18 99.06 639.08 108.90 C 643.52 112.09 647.49 115.85 651.83 119.14 C 657.47 126.15 665.42 131.05 670.51 138.57 C 672.03 141.03 675.05 143.04 674.74 146.24 C 673.66 149.57 674.89 153.71 676.99 156.50 L 677.30 156.95 C 677.22 158.37 677.07 159.78 676.85 161.19 C 673.64 157.56 673.86 151.77 669.97 148.50 C 663.91 149.70 661.62 156.22 658.91 161.00 C 656.50 169.36 655.35 178.36 657.19 186.97 C 657.47 192.09 657.76 197.21 658.48 202.29 L 657.74 203.56 C 656.46 196.47 656.39 189.22 655.23 182.11 C 654.50 174.91 655.82 167.63 657.78 160.72 C 660.26 155.47 663.18 149.75 668.77 147.26 C 664.46 140.79 659.45 134.61 653.35 129.73 C 639.11 114.97 622.80 102.14 604.83 92.21 C 595.96 86.09 585.95 81.88 576.95 75.97 C 568.31 71.49 559.46 67.41 550.60 63.36 C 545.77 61.29 541.37 58.32 536.38 56.59 C 531.13 54.74 526.53 51.41 521.13 49.95 C 507.28 44.39 493.29 39.12 478.90 35.15 C 473.20 34.34 467.79 32.38 462.31 30.74 C 454.86 29.68 447.47 28.03 440.08 26.72 C 425.75 28.63 411.44 30.81 397.00 31.76 C 388.85 33.84 380.51 34.93 372.13 35.51 C 360.30 37.49 348.74 40.77 336.94 42.87 C 328.69 44.26 320.78 47.10 312.97 50.02 C 300.70 52.23 289.64 58.25 278.39 63.34 C 272.13 65.99 267.08 70.65 261.87 74.87 C 269.15 73.40 276.54 72.55 283.85 71.23 C 295.58 70.17 307.23 72.54 318.95 72.78 C 328.27 73.70 337.63 73.57 346.99 73.57 C 359.03 74.16 371.00 75.71 383.04 76.35 C 400.66 77.89 418.26 81.01 435.98 80.03 C 445.21 84.86 455.07 88.37 464.70 92.34 C 474.05 96.65 483.35 101.07 492.69 105.40 C 505.59 113.24 519.50 119.42 531.82 128.22 C 538.87 132.87 546.32 136.89 553.19 141.81 C 562.88 148.74 572.27 156.05 581.58 163.48 C 593.95 172.61 606.14 182.11 616.93 193.10 C 622.51 199.18 628.67 204.73 635.19 209.78 C 639.67 214.00 643.98 218.47 647.29 223.70 C 652.90 233.05 658.32 242.53 664.23 251.70 C 666.59 255.86 668.28 260.43 671.19 264.27 C 667.62 249.91 661.09 236.13 660.52 221.14 C 658.93 215.45 658.05 209.59 657.75 203.69 L 658.64 204.01 C 659.59 209.41 659.88 214.95 661.62 220.17 C 661.34 226.41 663.28 232.37 664.59 238.39 C 667.54 246.61 669.25 255.23 672.71 263.26 C 673.57 266.13 674.36 269.03 674.86 271.99 C 676.55 274.79 677.89 277.77 679.31 280.71 C 683.26 286.25 686.83 292.51 686.41 299.58 C 683.81 298.86 684.07 294.82 682.13 292.97 C 679.23 289.85 677.00 285.70 672.92 283.99 C 671.73 283.29 670.00 283.17 669.44 281.71 C 671.44 282.14 673.40 282.78 675.39 283.30 C 672.40 276.11 667.89 269.74 663.68 263.25 C 655.23 248.00 646.27 232.97 636.12 218.81 C 625.92 209.39 615.96 199.68 605.41 190.65 C 596.22 181.39 585.62 173.67 575.22 165.83 C 564.14 157.09 551.96 149.88 540.84 141.18 C 531.83 136.41 524.16 129.54 515.08 124.89 C 503.55 118.40 492.42 111.14 480.31 105.74 C 468.46 100.98 456.71 96.00 444.83 91.35 C 439.80 89.53 434.38 89.39 429.30 87.75 C 423.03 85.80 416.41 87.26 410.01 86.12 C 402.20 84.82 394.21 85.42 386.48 83.62 C 379.74 82.14 372.80 82.37 366.02 81.21 C 350.39 79.51 334.63 79.85 318.95 79.94 C 310.00 78.76 300.97 78.62 291.97 78.21 C 282.18 78.62 272.13 78.68 262.71 81.66 C 275.18 83.11 287.55 85.16 300.07 86.18 C 307.49 86.83 314.49 89.88 321.98 90.02 C 337.84 91.61 353.50 94.75 369.15 97.67 C 374.24 98.51 379.02 100.59 384.10 101.50 C 391.89 102.73 399.14 106.33 407.05 106.94 C 411.21 107.07 413.85 110.81 417.28 112.67 C 425.81 117.69 433.85 123.47 442.22 128.75 C 447.60 133.15 453.93 136.23 458.85 141.19 C 464.53 145.50 469.11 151.07 475.04 155.07 C 486.08 164.28 496.61 174.27 505.45 185.63 C 512.94 193.83 520.15 202.26 527.19 210.85 C 531.10 216.24 535.23 221.46 539.36 226.68 C 544.37 233.21 547.45 240.95 552.30 247.58 C 558.32 255.94 562.68 265.31 567.53 274.36 C 578.04 294.38 586.21 315.63 591.57 337.61 C 593.98 344.95 595.19 352.61 596.23 360.25 C 601.69 349.32 606.54 338.07 612.55 327.42 C 613.94 324.98 615.04 322.25 617.35 320.51 L 617.32 321.74 C 611.58 330.86 606.97 340.64 602.30 350.34 C 601.22 354.22 598.21 357.19 597.37 361.16 C 596.23 364.18 596.99 367.50 596.05 370.58 C 595.84 368.75 596.42 366.74 595.69 365.03 C 593.86 365.98 594.88 369.41 595.71 371.05 L 596.04 371.79 C 595.68 373.41 595.16 375.02 594.41 376.51 C 593.57 371.26 593.11 365.57 589.68 361.25 C 588.50 359.27 586.34 357.95 585.59 355.75 C 587.65 357.01 589.31 358.79 591.09 360.41 C 590.49 354.61 588.53 349.07 587.33 343.39 C 583.69 332.63 580.96 321.60 577.19 310.89 C 572.21 299.04 566.67 287.44 561.39 275.72 C 557.93 269.28 553.57 263.38 550.17 256.90 C 546.15 249.10 540.56 242.25 536.64 234.40 C 532.60 227.31 527.72 220.72 522.26 214.67 C 518.98 210.05 515.03 206.00 511.08 201.96 C 504.16 193.62 496.98 185.50 489.60 177.58 C 484.11 170.62 476.75 165.56 470.17 159.74 C 463.78 154.52 458.04 148.53 451.35 143.67 C 445.72 140.08 440.91 135.38 435.31 131.75 C 431.90 129.52 428.53 127.23 425.22 124.86 C 419.35 120.97 413.92 116.03 406.93 114.25 C 397.46 111.52 387.53 110.72 378.10 107.79 C 366.42 103.79 353.92 103.64 341.94 101.04 C 332.03 99.04 322.09 97.31 312.11 95.80 C 304.53 93.85 296.67 93.76 289.03 92.16 C 281.06 90.67 272.87 88.66 264.73 89.97 C 266.02 91.58 268.04 92.23 269.83 93.10 C 279.18 97.18 288.53 101.29 298.15 104.69 C 304.20 106.30 309.78 109.18 315.60 111.44 C 323.31 115.09 331.71 116.98 339.40 120.68 C 345.82 122.94 352.18 125.33 358.65 127.46 C 364.86 130.04 371.78 130.93 377.58 134.47 C 390.02 146.29 403.86 156.97 413.92 171.03 C 419.15 177.12 424.91 182.76 429.83 189.11 C 441.47 202.80 453.11 216.86 460.64 233.31 C 466.30 245.84 471.71 258.51 475.27 271.81 C 476.56 275.45 477.86 279.13 478.29 283.00 C 479.04 289.10 481.74 294.81 481.88 301.01 C 482.10 310.13 483.92 319.12 484.05 328.24 C 488.00 325.02 491.87 321.13 497.13 320.30 C 505.30 318.77 513.65 316.68 521.99 318.11 C 537.47 321.28 552.73 327.09 564.98 337.31 C 565.77 337.91 566.10 338.88 566.34 339.81 L 566.65 341.62 C 572.44 349.78 578.55 357.80 583.19 366.71 C 588.58 375.53 591.13 385.72 593.36 395.72 C 594.84 410.66 596.50 426.69 589.77 440.70 C 586.77 447.05 584.03 453.87 578.73 458.73 C 572.27 464.61 566.31 471.06 559.27 476.29 C 553.93 479.07 548.89 482.55 542.92 483.90 C 535.27 487.10 526.87 487.40 518.99 489.79 C 513.35 490.15 507.70 490.69 502.15 491.88 C 491.81 492.10 481.21 494.03 471.05 491.30 C 461.12 489.97 451.61 486.69 441.96 484.00 C 437.31 482.76 432.90 480.49 428.04 480.11 C 422.30 481.98 417.87 486.60 413.75 490.84 C 412.18 489.51 411.18 487.43 408.97 487.04 C 405.23 486.78 401.94 488.77 398.68 490.28 C 401.78 485.61 408.76 484.66 413.31 487.69 C 414.85 485.48 416.07 482.96 418.31 481.33 C 417.87 482.74 417.43 484.16 417.00 485.59 C 420.87 482.78 424.61 479.73 429.18 478.10 C 426.45 476.90 423.32 478.17 420.71 476.67 C 415.69 475.28 410.63 473.12 405.33 473.42 C 402.62 474.54 401.09 477.25 399.62 479.63 C 396.25 485.86 391.30 491.35 389.60 498.39 C 391.26 497.25 392.78 495.95 394.41 494.77 C 392.47 498.58 388.99 501.60 386.43 505.09 C 385.01 500.48 379.74 496.90 375.01 499.06 C 369.61 501.82 365.60 506.52 361.77 511.10 L 360.96 511.11 C 359.62 506.37 360.97 500.53 357.85 496.18 C 355.92 494.79 353.57 493.25 351.08 493.84 C 349.65 494.32 348.78 496.47 347.20 496.11 C 346.60 492.45 346.42 487.20 341.91 486.24 C 338.55 485.02 337.05 489.08 334.43 489.94 C 334.23 489.17 333.83 487.61 333.63 486.84 L 334.08 486.33 C 335.80 484.61 337.05 482.51 338.08 480.33 C 335.40 480.96 332.75 481.69 330.08 482.36 C 330.73 483.12 331.40 483.88 332.10 484.63 C 326.99 483.77 322.13 486.14 317.06 485.88 C 318.66 482.21 322.68 480.20 326.11 478.61 C 325.75 479.32 325.04 480.74 324.69 481.45 C 328.31 480.37 331.56 478.36 335.17 477.22 C 336.31 476.70 337.77 476.59 338.64 475.59 C 337.95 474.50 337.27 473.43 336.59 472.35 C 338.14 473.06 339.40 474.45 341.11 474.81 C 346.64 473.73 352.07 472.13 357.50 470.62 C 357.26 469.63 356.99 468.65 356.70 467.69 C 358.05 468.34 359.21 469.86 360.88 469.57 C 368.20 468.88 375.47 467.50 382.86 467.63 C 378.57 463.05 374.08 458.65 369.63 454.23 C 367.81 461.17 359.53 462.61 353.39 462.18 C 353.73 463.18 354.07 464.19 354.43 465.20 C 353.34 464.70 352.26 464.21 351.17 463.74 L 350.52 463.44 C 350.72 461.87 350.56 460.32 350.27 458.78 C 352.70 459.92 355.13 461.78 357.99 461.23 C 361.29 460.59 364.60 459.35 367.08 457.01 C 368.67 454.88 367.99 452.00 367.19 449.69 C 369.43 450.08 370.95 452.23 373.20 452.80 C 378.86 454.42 383.77 458.73 389.96 458.27 C 389.58 457.15 389.24 456.03 388.92 454.91 C 393.14 455.19 395.71 459.31 399.57 460.64 C 401.37 461.67 404.23 462.04 405.03 464.09 C 402.07 463.30 399.48 461.55 396.54 460.73 C 398.41 464.38 402.34 466.12 405.64 468.24 C 409.67 469.67 414.05 469.90 418.29 470.30 L 417.96 469.13 C 413.76 469.51 409.52 468.25 406.78 464.91 C 410.10 464.99 412.39 469.15 415.75 467.98 C 415.90 467.21 416.20 465.67 416.35 464.90 C 419.31 468.44 423.64 470.65 427.96 472.04 C 436.18 473.03 443.86 476.35 451.99 477.71 C 455.79 479.19 459.88 478.58 463.83 479.23 C 469.90 479.78 475.90 481.46 482.02 481.20 C 488.58 479.77 495.42 480.37 501.94 478.78 C 505.37 477.38 509.19 477.86 512.65 476.58 C 524.21 474.72 534.68 469.10 545.16 464.18 C 550.15 461.79 554.72 458.61 558.53 454.59 C 563.09 451.14 565.55 445.84 567.76 440.74 C 573.99 428.98 573.98 415.04 571.56 402.27 C 570.17 395.23 567.75 388.45 565.30 381.73 C 562.65 377.73 559.87 373.80 557.30 369.74 C 554.41 364.74 549.20 361.82 545.47 357.55 C 543.09 354.87 539.71 353.32 537.47 350.51 C 526.80 340.19 514.70 331.42 501.73 324.23 C 499.73 322.93 497.37 322.45 495.13 321.76 C 490.93 324.27 486.33 326.76 483.70 331.05 C 483.61 333.11 484.27 335.32 483.34 337.27 C 483.22 335.73 483.08 334.18 482.92 332.65 L 482.11 333.06 C 482.03 336.21 481.40 339.29 481.05 342.42 C 480.54 343.63 479.65 344.41 478.36 344.78 C 479.28 342.33 480.83 339.93 480.60 337.20 C 480.20 333.56 478.35 330.32 476.58 327.19 C 477.12 327.29 478.20 327.50 478.73 327.60 C 477.27 317.08 477.68 306.28 475.05 295.93 C 473.27 290.76 472.76 285.28 470.94 280.12 C 467.24 268.43 465.13 256.02 458.79 245.34 C 454.98 237.54 451.72 229.39 446.71 222.24 C 445.09 219.85 443.64 217.35 442.09 214.92 C 438.55 208.93 433.41 204.12 429.77 198.18 C 424.69 192.28 419.84 186.18 414.48 180.51 C 406.13 169.65 396.57 159.80 386.69 150.32 C 383.92 147.31 380.36 145.26 377.02 142.99 C 373.12 140.48 369.58 137.31 365.09 135.85 C 355.54 132.50 345.89 129.39 336.64 125.27 C 327.37 122.32 318.32 118.70 308.92 116.16 C 303.34 113.89 297.60 112.06 291.91 110.09 C 283.05 106.26 273.67 103.87 264.68 100.36 C 262.02 99.20 257.84 99.68 256.77 102.79 C 255.11 105.53 256.57 108.68 257.91 111.21 C 261.71 117.25 267.37 121.71 272.37 126.69 C 277.44 131.61 283.59 135.44 287.82 141.20 C 290.61 145.03 294.64 147.67 297.53 151.41 C 300.79 156.25 307.93 157.20 309.60 163.33 C 310.96 171.58 310.47 180.11 308.29 188.18 C 306.04 198.58 305.13 209.33 301.37 219.36 C 299.70 223.45 299.43 227.90 298.15 232.10 C 296.42 237.66 295.08 243.35 294.24 249.11 C 297.46 247.98 300.46 246.20 303.85 245.59 C 308.84 244.63 313.96 244.54 319.02 244.80 C 327.95 245.90 337.74 244.96 345.43 250.55 C 352.77 245.07 360.57 239.65 369.62 237.49 C 376.81 235.63 383.64 239.43 390.34 241.47 C 399.15 244.00 407.64 247.73 415.45 252.52 C 423.75 258.79 430.82 266.50 438.37 273.62 C 445.26 280.48 451.03 288.33 456.91 296.05 C 462.13 303.51 467.96 310.83 471.34 319.34 C 467.74 316.45 466.96 310.60 462.39 308.63 C 456.16 305.10 448.77 306.46 441.95 306.19 C 434.73 305.53 427.22 305.99 420.34 308.42 C 418.11 317.69 418.05 327.58 414.18 336.43 C 417.74 337.20 419.96 340.15 422.81 342.15 C 426.18 344.80 428.50 348.45 431.18 351.74 C 435.00 355.68 438.33 360.06 441.39 364.60 C 444.24 369.02 444.94 374.55 448.44 378.59 C 450.54 381.66 453.80 384.93 452.73 388.98 C 450.72 393.90 447.51 398.16 444.78 402.68 C 439.80 409.13 436.27 416.78 429.84 421.99 C 429.21 425.96 426.95 429.42 424.02 432.09 C 418.91 434.85 416.02 440.19 411.17 443.32 C 411.36 441.93 411.73 440.51 411.07 439.18 C 410.85 437.46 411.18 435.53 409.91 434.14 C 407.03 434.21 404.58 436.10 401.92 437.01 C 399.46 437.81 398.79 440.65 396.70 441.82 C 396.49 440.39 396.78 439.18 397.58 438.19 C 399.50 436.66 401.71 435.08 402.32 432.55 C 402.48 432.14 402.79 431.33 402.95 430.92 C 398.57 429.74 394.51 432.59 390.67 434.25 C 390.86 433.73 391.25 432.69 391.45 432.17 C 393.56 431.35 395.80 430.15 395.96 427.59 L 396.16 427.06 C 397.94 426.30 401.49 427.05 401.29 424.22 C 397.65 423.88 393.96 424.02 390.95 426.35 C 391.36 425.34 391.84 424.37 392.38 423.43 L 392.88 423.41 C 394.36 423.22 398.21 422.83 397.21 420.72 C 400.24 420.07 403.37 419.92 406.33 418.93 C 406.08 416.04 402.55 417.28 401.18 418.58 C 401.19 418.27 401.22 417.66 401.23 417.36 C 405.00 412.92 411.68 413.94 416.92 413.75 C 418.35 414.03 418.96 412.59 419.62 411.64 C 423.64 404.79 425.64 397.09 428.55 389.76 C 424.87 385.36 419.30 383.53 414.72 380.34 C 408.27 375.48 403.06 369.14 396.45 364.48 C 397.51 368.03 401.67 370.55 400.61 374.61 C 399.39 377.96 398.43 381.43 396.74 384.59 C 392.58 392.16 389.17 400.64 382.54 406.41 C 380.95 409.39 379.86 412.98 376.75 414.75 C 374.90 415.94 374.00 418.19 371.97 419.13 C 371.50 416.15 375.00 413.66 373.96 410.99 C 370.02 409.71 366.76 412.70 363.79 414.79 C 362.29 415.75 361.89 417.57 361.06 419.03 C 359.20 415.88 362.58 413.03 362.94 410.13 C 360.02 409.33 357.30 411.82 354.55 412.63 C 353.12 412.96 352.84 415.37 351.15 414.90 C 350.89 413.89 351.03 412.98 351.58 412.18 C 352.81 414.33 354.27 410.99 353.48 409.81 L 353.39 409.39 C 354.86 408.33 356.64 407.56 357.55 405.89 C 354.14 405.32 350.82 405.70 347.95 407.71 C 347.85 405.84 349.73 404.89 351.04 403.94 C 351.31 404.25 351.86 404.86 352.13 405.16 L 352.79 404.83 C 352.54 404.49 352.03 403.82 351.78 403.49 C 353.64 401.46 357.66 402.59 358.60 399.89 C 355.76 397.66 352.21 398.18 348.97 398.90 C 354.47 392.95 363.06 396.84 369.94 395.04 C 375.81 391.65 377.31 384.45 378.82 378.43 C 371.06 374.98 364.80 369.06 359.10 362.91 C 353.33 356.03 346.38 349.62 343.52 340.86 C 339.12 342.21 335.56 345.47 331.06 346.56 C 326.32 348.11 321.67 349.94 317.26 352.29 C 308.12 355.64 298.66 358.28 289.00 359.65 C 283.53 360.25 277.96 360.94 272.56 361.50 C 271.24 366.30 269.65 371.06 267.58 375.59 C 263.68 382.11 260.83 389.21 256.74 395.62 C 254.26 398.57 252.13 401.79 250.10 405.06 C 246.96 411.04 240.26 414.65 238.33 421.33 C 236.35 428.21 231.49 433.70 227.24 439.27 C 224.66 442.82 223.41 447.27 220.26 450.38 C 219.55 451.65 219.24 453.13 218.27 454.26 C 217.90 450.49 218.51 446.75 219.57 443.15 C 218.76 442.40 217.35 440.85 216.45 442.41 C 214.53 444.56 213.26 447.42 210.52 448.70 C 208.46 449.54 208.59 452.13 207.03 453.40 C 207.25 452.10 206.07 448.78 207.99 448.71 L 208.68 448.67 C 208.52 448.48 208.18 448.10 208.02 447.92 C 208.95 445.14 210.94 442.97 212.63 440.66 C 213.81 439.34 212.12 437.94 211.05 437.35 C 207.44 438.99 204.95 442.50 201.28 444.13 C 198.55 445.11 197.01 447.66 194.77 449.32 C 194.91 448.56 195.19 447.06 195.33 446.31 L 196.03 446.04 C 197.85 445.69 199.32 443.74 198.47 441.93 L 198.33 441.34 C 200.43 438.05 203.91 436.00 206.29 432.96 C 203.93 430.67 201.25 433.78 198.87 434.50 C 197.54 434.21 196.23 434.23 195.01 434.90 C 195.58 433.43 196.70 432.06 196.44 430.41 C 199.34 427.81 203.10 426.31 206.62 424.68 C 206.78 424.20 207.12 423.24 207.29 422.76 C 205.21 422.91 203.18 422.47 201.13 422.44 C 200.10 423.25 199.12 424.14 198.08 424.94 C 198.17 424.28 198.36 422.96 198.45 422.30 L 199.25 422.14 C 200.50 422.21 202.91 421.07 201.33 419.72 C 202.39 418.16 204.42 417.84 206.08 417.23 C 211.60 415.13 217.42 413.99 222.99 412.03 C 224.72 411.15 226.70 410.05 227.06 407.94 C 228.29 402.78 229.18 397.53 230.48 392.38 C 234.57 382.36 238.82 372.14 245.71 363.68 C 245.23 360.48 244.10 357.41 242.92 354.42 C 235.84 351.73 229.55 347.42 222.66 344.36 C 217.15 340.28 211.63 336.22 205.96 332.43 C 200.52 337.12 196.46 343.40 192.35 349.30 C 191.81 354.81 190.78 360.70 187.20 365.14 C 183.07 372.23 179.51 379.77 174.03 386.00 C 170.64 389.74 167.93 394.01 165.31 398.30 C 163.00 401.17 159.51 402.72 156.34 404.42 C 151.23 405.79 147.90 410.38 142.99 412.17 C 141.12 412.84 139.54 414.08 137.82 415.04 C 137.97 414.10 138.29 413.24 138.77 412.45 C 140.48 413.18 142.01 411.03 141.32 409.48 C 141.55 408.28 141.55 407.11 141.32 405.95 C 137.32 404.90 133.84 408.29 129.95 408.69 C 128.28 408.71 126.64 408.98 124.99 409.27 C 125.72 408.10 126.54 406.92 126.67 405.51 C 127.30 405.03 127.81 404.45 128.21 403.78 C 125.42 403.90 122.71 404.78 119.91 404.65 C 117.61 404.24 116.50 407.18 114.27 406.94 C 114.63 406.08 115.03 405.24 115.47 404.43 L 115.85 404.51 C 117.53 405.32 118.97 403.67 119.06 402.08 L 119.27 401.34 C 120.74 400.51 122.48 400.19 123.77 399.06 C 120.31 398.22 116.74 398.17 113.55 399.91 C 113.98 399.45 114.85 398.54 115.28 398.09 C 116.81 398.28 118.90 398.17 119.03 396.19 L 119.26 395.56 C 122.59 393.60 126.81 394.88 130.18 392.95 C 127.01 391.63 123.65 390.70 120.24 391.73 L 120.96 390.19 C 121.33 389.98 122.06 389.56 122.42 389.35 L 122.95 389.58 C 124.21 390.44 126.03 390.43 126.96 389.09 L 127.75 388.35 C 133.86 387.96 139.80 390.15 145.92 389.56 C 152.51 388.37 156.42 382.09 157.96 376.03 C 159.26 370.59 161.64 365.47 162.71 359.97 C 164.47 351.23 169.77 343.61 170.60 334.64 C 175.17 328.56 176.77 320.90 180.31 314.25 C 181.59 310.66 182.84 306.97 183.77 303.32 C 179.76 296.33 177.72 288.52 175.02 281.00 C 172.84 274.85 172.92 268.23 171.09 262.00 C 169.28 251.12 170.37 239.98 168.61 229.08 C 167.88 225.10 167.97 221.04 167.84 217.01 C 163.88 218.56 159.35 219.50 155.34 217.56 C 151.30 213.99 148.70 208.82 148.72 203.36 C 143.38 197.61 141.74 189.49 140.69 181.96 C 140.87 178.27 141.25 174.58 141.76 170.92 C 142.29 167.19 144.13 163.75 144.64 160.04 C 143.77 157.68 143.02 155.26 142.01 152.95 C 140.15 150.73 138.12 148.56 137.28 145.70 C 138.58 144.78 140.75 145.17 141.42 143.47 C 142.80 141.79 140.56 140.49 139.58 139.41 C 136.69 137.14 137.03 133.21 136.54 129.95 C 136.15 126.18 137.47 122.54 138.38 118.99 C 135.26 108.98 135.75 98.41 135.86 88.06 C 136.87 77.11 138.94 66.19 142.98 55.93 C 145.79 49.49 146.42 41.83 151.99 36.90 C 152.18 39.16 150.68 41.03 150.13 43.13 C 147.51 51.95 145.34 60.94 144.22 70.08 C 143.93 80.21 142.52 90.38 144.38 100.45 C 145.09 103.87 145.45 107.35 145.96 110.81 C 154.64 100.48 165.32 92.11 175.84 83.74 C 180.88 80.53 186.62 78.05 190.91 73.83 C 190.36 59.67 187.22 45.74 182.40 32.45 C 184.16 32.39 184.63 34.25 185.42 35.40 C 189.79 44.96 193.01 54.97 195.90 65.04 C 196.85 66.91 196.60 69.57 198.13 70.99 C 205.92 66.73 213.69 62.42 221.68 58.54 C 238.66 51.44 256.65 47.45 274.28 42.38 C 294.92 36.61 316.53 32.59 338.01 35.28 C 349.19 34.26 359.84 30.37 370.99 29.05 C 379.70 27.42 388.21 24.66 397.08 23.88 C 406.43 23.86 415.57 21.45 424.92 21.50 M 273.96 49.93 C 266.83 51.32 260.06 54.07 253.00 55.78 C 247.56 57.85 241.77 58.88 236.52 61.50 C 229.72 63.53 223.69 67.32 217.27 70.25 C 211.19 73.38 205.05 76.44 199.30 80.16 C 199.81 84.85 200.13 89.56 199.99 94.28 C 205.77 92.01 211.49 89.51 217.67 88.50 C 223.99 86.28 230.63 85.28 237.21 84.29 C 240.35 79.83 242.98 74.68 247.76 71.72 C 252.41 68.77 256.93 65.59 261.62 62.70 C 267.36 60.27 272.40 56.37 278.40 54.51 C 286.32 52.02 293.78 48.34 301.61 45.60 C 302.88 45.08 304.33 44.85 305.36 43.87 C 294.63 44.02 284.30 47.43 273.96 49.93 M 143.33 58.30 C 139.47 69.12 137.08 80.55 136.99 92.05 C 137.58 101.37 136.25 111.16 140.05 119.97 C 141.60 122.67 141.74 126.16 144.05 128.38 C 146.50 127.50 148.88 126.27 150.46 124.13 C 149.25 120.35 146.85 117.08 145.69 113.29 C 142.59 101.51 141.59 89.22 142.82 77.08 C 142.37 66.41 145.96 56.18 147.78 45.84 C 146.19 49.95 145.30 54.32 143.33 58.30 M 187.88 45.39 C 190.92 57.34 191.53 69.79 192.98 82.04 C 193.76 92.39 191.93 102.63 189.79 112.71 C 188.75 110.59 189.60 108.30 189.78 106.11 C 185.92 107.37 182.89 110.38 179.31 112.27 C 177.02 113.20 176.20 115.60 176.16 117.90 C 178.99 117.85 178.95 113.97 181.09 112.73 C 181.41 114.52 180.02 116.98 181.62 118.34 C 182.30 116.60 181.81 114.05 183.71 113.02 C 183.63 115.69 182.36 119.59 185.63 120.88 C 186.54 118.25 187.30 115.57 188.17 112.94 C 188.50 113.11 189.16 113.46 189.49 113.64 C 188.37 117.03 186.80 120.36 186.22 123.88 C 187.24 126.19 190.24 127.14 192.61 126.83 C 194.07 121.86 194.84 116.71 196.67 111.85 C 198.87 99.35 199.73 86.45 197.11 73.93 C 195.78 68.10 193.69 62.47 192.36 56.63 C 190.41 53.06 190.31 48.70 187.88 45.39 M 180.86 91.78 C 174.49 97.12 167.16 101.38 161.78 107.82 C 160.53 109.61 158.67 111.45 159.18 113.84 C 160.66 113.97 162.54 114.23 163.50 112.80 C 163.91 111.49 164.16 110.14 164.57 108.84 C 164.79 109.67 165.23 111.35 165.45 112.18 C 166.93 111.55 168.28 110.62 169.50 109.59 C 169.99 107.48 169.87 105.28 170.18 103.14 C 171.69 103.88 170.79 106.48 171.40 107.92 C 174.33 107.91 176.50 105.40 178.97 104.10 C 182.71 101.16 188.08 100.45 191.22 96.88 C 191.72 92.59 192.22 88.27 191.94 83.94 C 188.16 86.44 184.62 89.26 180.86 91.78 M 224.94 93.58 C 216.13 95.47 207.21 97.75 199.48 102.53 C 198.44 103.80 198.86 105.59 198.58 107.09 C 198.50 110.96 197.16 114.60 196.06 118.26 C 199.05 118.19 202.02 117.57 204.93 116.94 C 206.33 116.08 206.94 114.26 208.62 113.80 C 208.77 114.55 209.06 116.04 209.20 116.79 C 219.02 115.12 229.01 114.29 238.97 114.81 C 237.65 112.51 236.07 110.33 235.27 107.77 C 233.38 102.60 234.28 97.04 234.17 91.68 C 231.00 91.80 227.98 92.78 224.94 93.58 M 206.83 124.71 C 205.62 127.25 204.95 130.94 206.20 133.63 C 208.57 133.92 210.97 133.76 213.35 133.71 C 218.14 136.49 223.77 136.74 229.02 138.04 C 237.56 140.79 246.39 142.55 254.98 145.10 C 252.10 138.16 247.40 132.09 244.89 124.97 C 244.42 123.90 244.33 122.25 242.93 121.96 C 237.97 121.27 233.00 122.22 228.03 122.14 C 220.89 122.04 213.72 122.88 206.83 124.71 M 247.76 127.64 C 251.01 136.44 257.10 143.90 260.42 152.69 C 264.86 160.89 268.95 169.47 270.41 178.77 C 271.52 184.68 274.23 190.23 274.46 196.31 C 274.62 201.56 275.99 206.77 275.13 212.02 C 274.84 220.61 273.27 229.10 270.93 237.33 C 272.08 236.72 273.15 235.89 273.62 234.63 C 276.85 228.43 279.83 222.11 282.47 215.63 C 285.91 206.62 287.42 197.05 289.47 187.67 C 289.86 182.61 290.62 177.43 289.57 172.40 C 288.20 168.72 284.73 166.52 282.47 163.45 C 276.16 156.42 269.05 150.18 262.67 143.23 C 260.39 139.87 256.69 137.94 254.22 134.76 C 252.15 132.32 250.47 129.45 247.76 127.64 M 212.25 141.35 C 211.15 145.30 210.33 149.81 212.36 153.61 C 214.23 155.45 216.85 154.10 219.09 154.13 C 218.49 156.59 217.02 158.68 215.34 160.52 C 216.84 162.37 218.50 164.12 220.37 165.62 C 224.00 168.61 229.27 168.86 232.40 172.56 C 235.59 175.39 235.51 179.91 236.32 183.75 C 237.61 187.09 239.11 190.34 240.38 193.69 C 246.79 206.33 250.77 220.06 257.53 232.53 C 259.51 236.76 261.38 241.13 264.36 244.80 C 267.90 242.44 269.53 238.09 270.34 234.07 C 274.48 220.36 275.00 205.71 272.56 191.64 C 271.50 187.76 270.06 183.97 269.37 179.99 C 267.82 170.86 264.22 162.22 259.69 154.19 C 244.26 148.70 228.33 144.55 212.25 141.35 M 174.33 148.34 C 172.54 151.30 172.93 154.90 173.07 158.20 C 174.45 158.24 175.83 158.12 177.20 157.85 C 176.07 156.05 173.51 154.46 174.52 152.03 C 175.17 149.08 180.12 149.45 180.53 152.41 C 181.57 154.53 179.11 155.77 178.02 157.18 C 179.61 157.01 181.34 156.67 182.45 155.40 C 183.79 151.20 178.59 144.89 174.33 148.34 M 146.33 155.65 C 148.35 156.72 149.39 153.01 150.85 151.95 C 150.49 150.81 149.83 149.77 148.76 149.20 C 146.60 150.54 146.42 153.35 146.33 155.65 M 176.40 150.96 C 176.10 151.29 175.50 151.97 175.19 152.31 C 175.34 154.74 178.94 150.90 176.40 150.96 M 149.40 157.06 C 149.12 158.43 149.64 158.95 150.98 158.60 C 151.36 157.16 150.83 156.65 149.40 157.06 M 190.16 178.11 L 190.14 178.93 L 190.96 178.95 L 190.98 178.13 L 190.16 178.11 M 187.04 179.12 C 186.44 180.90 186.92 181.46 188.50 180.82 C 189.19 179.21 188.70 178.64 187.04 179.12 M 182.64 182.12 C 182.53 182.38 182.30 182.91 182.19 183.17 C 181.83 183.37 181.10 183.77 180.73 183.97 C 180.42 184.31 179.78 184.97 179.47 185.30 L 179.67 185.77 C 179.37 186.44 178.78 187.78 178.49 188.44 C 176.59 188.90 175.52 190.77 174.17 192.05 L 173.76 192.99 C 172.92 194.46 171.15 195.03 170.36 196.52 C 169.72 197.25 169.07 197.98 168.57 198.81 L 168.64 199.07 C 167.21 201.91 164.30 203.13 162.01 205.10 C 161.24 205.12 159.70 205.17 158.93 205.19 L 157.96 205.14 C 156.40 204.54 155.72 205.08 155.94 206.76 L 155.12 207.11 C 154.63 207.33 153.64 207.78 153.14 208.01 C 153.04 210.39 155.30 211.33 155.30 213.68 C 155.98 213.68 157.34 213.69 158.02 213.70 C 158.45 213.82 159.29 214.06 159.72 214.18 C 160.32 214.10 161.53 213.93 162.13 213.85 C 165.44 214.56 167.93 211.36 170.10 209.32 C 172.03 208.00 171.55 205.53 170.39 203.89 L 171.29 203.55 C 171.66 204.39 172.10 205.19 172.61 205.96 C 173.44 203.43 175.25 201.86 177.08 200.12 L 177.13 198.65 C 177.42 198.50 178.01 198.19 178.30 198.04 C 178.83 196.98 179.07 195.86 179.03 194.70 C 180.39 195.22 181.41 192.95 180.97 191.83 L 181.93 191.85 L 181.83 190.74 C 182.18 190.56 182.90 190.20 183.26 190.01 C 183.68 189.18 184.03 188.33 184.30 187.44 C 184.85 187.06 185.94 186.28 186.49 185.89 C 185.75 184.10 186.44 181.55 185.15 180.23 C 184.52 180.70 183.27 181.64 182.64 182.12 M 187.11 183.13 L 187.09 183.91 L 187.87 183.93 L 187.89 183.15 L 187.11 183.13 M 218.01 184.63 C 218.64 190.95 221.15 196.90 222.96 202.95 C 225.80 209.70 226.72 217.32 230.96 223.44 C 228.98 212.17 225.21 201.22 221.56 190.38 C 220.84 188.22 219.93 185.99 218.01 184.63 M 191.47 197.40 C 187.14 201.25 181.63 203.47 177.32 207.35 C 174.93 210.62 172.49 213.88 169.16 216.27 C 168.57 225.85 171.16 235.34 170.83 244.96 C 170.31 254.96 173.30 264.58 174.55 274.40 C 176.59 282.58 179.36 290.59 182.62 298.37 C 187.22 307.40 192.78 315.91 198.96 323.95 C 205.78 331.72 214.92 336.78 222.99 343.06 C 228.99 345.91 234.57 349.62 240.79 352.01 L 240.75 351.28 C 234.95 347.89 229.97 343.34 224.42 339.58 C 216.82 332.63 209.58 324.60 206.51 314.55 C 204.94 309.04 201.84 303.93 201.57 298.10 C 201.41 295.65 200.51 293.36 199.75 291.07 C 198.79 288.48 199.18 285.67 198.60 283.01 C 196.28 274.88 197.94 266.36 197.70 258.05 C 197.17 243.65 198.68 229.28 200.79 215.06 C 201.15 208.72 200.74 202.37 201.08 196.03 C 200.89 193.94 201.38 191.54 199.96 189.78 C 197.02 192.20 194.35 194.91 191.47 197.40 M 153.14 208.01 C 152.49 206.92 154.93 205.10 153.04 204.81 C 151.36 204.94 151.44 208.14 153.14 208.01 M 683.07 289.94 C 682.95 291.30 683.92 292.67 684.51 293.88 C 686.20 293.54 684.70 289.46 683.07 289.94 M 379.49 322.59 C 378.32 326.82 376.17 330.71 373.61 334.26 C 376.56 338.45 379.94 342.37 384.07 345.44 C 382.40 337.85 381.91 329.99 379.49 322.59 M 142.21 404.38 C 142.20 404.99 142.17 406.20 142.16 406.80 C 144.63 406.64 146.42 404.49 147.05 402.24 C 145.38 402.81 143.75 403.50 142.21 404.38 M 373.22 408.05 C 371.32 408.48 372.47 410.77 374.05 410.09 C 376.14 409.88 374.88 407.01 373.22 408.05 M 208.30 430.10 C 207.21 430.14 205.84 432.33 207.50 432.56 C 209.03 432.59 211.04 429.37 208.30 430.10 M 411.63 433.21 C 410.62 434.09 412.24 436.66 413.19 435.10 C 414.64 433.87 413.05 431.81 411.63 433.21 M 211.69 436.10 C 212.48 436.90 213.28 438.38 214.64 437.78 C 215.38 436.61 216.96 434.52 215.16 433.51 C 213.91 434.23 212.75 435.11 211.69 436.10 M 218.09 440.93 C 218.64 441.16 219.72 441.63 220.26 441.86 C 221.62 440.25 222.28 438.15 221.98 436.06 C 220.45 437.47 219.05 439.06 218.09 440.93 M 371.55 453.69 C 373.66 457.07 376.89 459.53 379.61 462.41 C 381.38 464.06 382.90 466.08 385.03 467.29 C 391.05 467.56 397.00 468.64 403.05 468.68 C 401.40 466.71 398.93 465.71 397.16 463.88 C 395.35 462.11 393.76 460.12 391.90 458.41 C 390.56 458.88 389.26 459.82 387.78 459.44 C 381.91 458.98 377.24 454.80 371.55 453.69 M 366.03 473.41 C 363.85 473.71 361.55 473.67 359.48 474.49 C 355.87 480.34 352.12 486.21 349.77 492.71 C 352.22 492.76 354.87 492.55 356.98 494.05 C 361.04 496.48 361.29 501.79 361.41 506.01 C 363.89 504.11 363.21 499.67 366.47 498.46 C 365.58 501.20 364.00 503.71 363.62 506.62 C 368.25 502.97 372.40 496.75 379.01 497.33 C 381.97 497.35 384.02 499.67 386.22 501.31 C 388.93 497.35 389.91 492.48 392.62 488.51 C 395.92 483.50 398.81 478.23 402.27 473.32 C 395.93 473.00 389.53 471.47 383.20 472.54 C 377.48 471.43 371.73 472.94 366.03 473.41 M 342.74 478.62 C 339.36 479.59 337.90 483.03 336.59 485.96 C 339.41 485.17 343.07 484.20 345.36 486.68 C 347.04 488.08 346.80 490.71 348.51 492.05 C 350.93 486.01 354.40 480.51 357.53 474.86 C 352.55 475.89 347.54 476.95 342.74 478.62 Z" />
<path fill="#060606" opacity="0.44" d=" M 381.36 474.03 L 382.66 473.38 C 381.67 476.51 379.00 478.67 377.23 481.35 C 373.21 486.01 370.74 491.68 367.77 496.98 L 366.42 497.68 C 369.64 488.82 375.42 481.23 381.36 474.03 Z" />
</g>
<g id="#29282b70">
<path fill="#29282b" opacity="0.44" d=" M 397.00 31.76 C 411.44 30.81 425.75 28.63 440.08 26.72 C 447.47 28.03 454.86 29.68 462.31 30.74 C 467.79 32.38 473.20 34.34 478.90 35.15 C 493.29 39.12 507.28 44.39 521.13 49.95 C 526.53 51.41 531.13 54.74 536.38 56.59 C 541.37 58.32 545.77 61.29 550.60 63.36 C 559.46 67.41 568.31 71.49 576.95 75.97 C 585.95 81.88 595.96 86.09 604.83 92.21 C 622.80 102.14 639.11 114.97 653.35 129.73 C 659.45 134.61 664.46 140.79 668.77 147.26 C 663.18 149.75 660.26 155.47 657.78 160.72 C 655.82 167.63 654.50 174.91 655.23 182.11 C 656.39 189.22 656.46 196.47 657.74 203.56 L 657.75 203.69 C 658.05 209.59 658.93 215.45 660.52 221.14 C 661.09 236.13 667.62 249.91 671.19 264.27 C 668.28 260.43 666.59 255.86 664.23 251.70 C 658.32 242.53 652.90 233.05 647.29 223.70 C 643.98 218.47 639.67 214.00 635.19 209.78 C 628.67 204.73 622.51 199.18 616.93 193.10 C 606.14 182.11 593.95 172.61 581.58 163.48 C 572.27 156.05 562.88 148.74 553.19 141.81 C 546.32 136.89 538.87 132.87 531.82 128.22 C 519.50 119.42 505.59 113.24 492.69 105.40 C 483.35 101.07 474.05 96.65 464.70 92.34 C 455.07 88.37 445.21 84.86 435.98 80.03 C 418.26 81.01 400.66 77.89 383.04 76.35 C 371.00 75.71 359.03 74.16 346.99 73.57 C 337.63 73.57 328.27 73.70 318.95 72.78 C 307.23 72.54 295.58 70.17 283.85 71.23 C 276.54 72.55 269.15 73.40 261.87 74.87 C 267.08 70.65 272.13 65.99 278.39 63.34 C 289.64 58.25 300.70 52.23 312.97 50.02 C 320.78 47.10 328.69 44.26 336.94 42.87 C 348.74 40.77 360.30 37.49 372.13 35.51 C 380.51 34.93 388.85 33.84 397.00 31.76 Z" />
<path fill="#29282b" opacity="0.44" d=" M 273.96 49.93 C 284.30 47.43 294.63 44.02 305.36 43.87 C 304.33 44.85 302.88 45.08 301.61 45.60 C 293.78 48.34 286.32 52.02 278.40 54.51 C 272.40 56.37 267.36 60.27 261.62 62.70 C 256.93 65.59 252.41 68.77 247.76 71.72 C 242.98 74.68 240.35 79.83 237.21 84.29 C 230.63 85.28 223.99 86.28 217.67 88.50 C 211.49 89.51 205.77 92.01 199.99 94.28 C 200.13 89.56 199.81 84.85 199.30 80.16 C 205.05 76.44 211.19 73.38 217.27 70.25 C 223.69 67.32 229.72 63.53 236.52 61.50 C 241.77 58.88 247.56 57.85 253.00 55.78 C 260.06 54.07 266.83 51.32 273.96 49.93 Z" />
<path fill="#29282b" opacity="0.44" d=" M 262.71 81.66 C 272.13 78.68 282.18 78.62 291.97 78.21 C 300.97 78.62 310.00 78.76 318.95 79.94 C 334.63 79.85 350.39 79.51 366.02 81.21 C 372.80 82.37 379.74 82.14 386.48 83.62 C 394.21 85.42 402.20 84.82 410.01 86.12 C 416.41 87.26 423.03 85.80 429.30 87.75 C 434.38 89.39 439.80 89.53 444.83 91.35 C 456.71 96.00 468.46 100.98 480.31 105.74 C 492.42 111.14 503.55 118.40 515.08 124.89 C 524.16 129.54 531.83 136.41 540.84 141.18 C 551.96 149.88 564.14 157.09 575.22 165.83 C 585.62 173.67 596.22 181.39 605.41 190.65 C 615.96 199.68 625.92 209.39 636.12 218.81 C 646.27 232.97 655.23 248.00 663.68 263.25 C 667.89 269.74 672.40 276.11 675.39 283.30 C 673.40 282.78 671.44 282.14 669.44 281.71 C 667.86 281.38 666.52 280.41 665.05 279.82 C 659.00 278.99 652.67 279.53 647.01 281.88 C 640.55 285.90 634.11 290.59 630.18 297.25 C 625.14 304.57 622.31 313.19 617.35 320.51 C 615.04 322.25 613.94 324.98 612.55 327.42 C 606.54 338.07 601.69 349.32 596.23 360.25 C 595.19 352.61 593.98 344.95 591.57 337.61 C 586.21 315.63 578.04 294.38 567.53 274.36 C 562.68 265.31 558.32 255.94 552.30 247.58 C 547.45 240.95 544.37 233.21 539.36 226.68 C 535.23 221.46 531.10 216.24 527.19 210.85 C 520.15 202.26 512.94 193.83 505.45 185.63 C 496.61 174.27 486.08 164.28 475.04 155.07 C 469.11 151.07 464.53 145.50 458.85 141.19 C 453.93 136.23 447.60 133.15 442.22 128.75 C 433.85 123.47 425.81 117.69 417.28 112.67 C 413.85 110.81 411.21 107.07 407.05 106.94 C 399.14 106.33 391.89 102.73 384.10 101.50 C 379.02 100.59 374.24 98.51 369.15 97.67 C 353.50 94.75 337.84 91.61 321.98 90.02 C 314.49 89.88 307.49 86.83 300.07 86.18 C 287.55 85.16 275.18 83.11 262.71 81.66 Z" />
<path fill="#29282b" opacity="0.44" d=" M 180.86 91.78 C 184.62 89.26 188.16 86.44 191.94 83.94 C 192.22 88.27 191.72 92.59 191.22 96.88 C 188.08 100.45 182.71 101.16 178.97 104.10 C 176.50 105.40 174.33 107.91 171.40 107.92 C 170.79 106.48 171.69 103.88 170.18 103.14 C 169.87 105.28 169.99 107.48 169.50 109.59 C 168.28 110.62 166.93 111.55 165.45 112.18 C 165.23 111.35 164.79 109.67 164.57 108.84 C 164.16 110.14 163.91 111.49 163.50 112.80 C 162.54 114.23 160.66 113.97 159.18 113.84 C 158.67 111.45 160.53 109.61 161.78 107.82 C 167.16 101.38 174.49 97.12 180.86 91.78 Z" />
<path fill="#29282b" opacity="0.44" d=" M 264.73 89.97 C 272.87 88.66 281.06 90.67 289.03 92.16 C 296.67 93.76 304.53 93.85 312.11 95.80 C 322.09 97.31 332.03 99.04 341.94 101.04 C 353.92 103.64 366.42 103.79 378.10 107.79 C 387.53 110.72 397.46 111.52 406.93 114.25 C 413.92 116.03 419.35 120.97 425.22 124.86 C 428.53 127.23 431.90 129.52 435.31 131.75 C 440.91 135.38 445.72 140.08 451.35 143.67 C 458.04 148.53 463.78 154.52 470.17 159.74 C 476.75 165.56 484.11 170.62 489.60 177.58 C 496.98 185.50 504.16 193.62 511.08 201.96 C 515.03 206.00 518.98 210.05 522.26 214.67 C 527.72 220.72 532.60 227.31 536.64 234.40 C 540.56 242.25 546.15 249.10 550.17 256.90 C 553.57 263.38 557.93 269.28 561.39 275.72 C 566.67 287.44 572.21 299.04 577.19 310.89 C 580.96 321.60 583.69 332.63 587.33 343.39 C 588.53 349.07 590.49 354.61 591.09 360.41 C 589.31 358.79 587.65 357.01 585.59 355.75 C 578.78 350.94 573.76 343.66 566.34 339.81 C 566.10 338.88 565.77 337.91 564.98 337.31 C 552.73 327.09 537.47 321.28 521.99 318.11 C 513.65 316.68 505.30 318.77 497.13 320.30 C 491.87 321.13 488.00 325.02 484.05 328.24 C 483.92 319.12 482.10 310.13 481.88 301.01 C 481.74 294.81 479.04 289.10 478.29 283.00 C 477.86 279.13 476.56 275.45 475.27 271.81 C 471.71 258.51 466.30 245.84 460.64 233.31 C 453.11 216.86 441.47 202.80 429.83 189.11 C 424.91 182.76 419.15 177.12 413.92 171.03 C 403.86 156.97 390.02 146.29 377.58 134.47 C 371.78 130.93 364.86 130.04 358.65 127.46 C 352.18 125.33 345.82 122.94 339.40 120.68 C 331.71 116.98 323.31 115.09 315.60 111.44 C 309.78 109.18 304.20 106.30 298.15 104.69 C 288.53 101.29 279.18 97.18 269.83 93.10 C 268.04 92.23 266.02 91.58 264.73 89.97 Z" />
<path fill="#29282b" opacity="0.44" d=" M 224.94 93.58 C 227.98 92.78 231.00 91.80 234.17 91.68 C 234.28 97.04 233.38 102.60 235.27 107.77 C 236.07 110.33 237.65 112.51 238.97 114.81 C 229.01 114.29 219.02 115.12 209.20 116.79 C 209.06 116.04 208.77 114.55 208.62 113.80 C 206.94 114.26 206.33 116.08 204.93 116.94 C 202.02 117.57 199.05 118.19 196.06 118.26 C 197.16 114.60 198.50 110.96 198.58 107.09 C 198.86 105.59 198.44 103.80 199.48 102.53 C 207.21 97.75 216.13 95.47 224.94 93.58 Z" />
<path fill="#29282b" opacity="0.44" d=" M 256.77 102.79 C 257.84 99.68 262.02 99.20 264.68 100.36 C 273.67 103.87 283.05 106.26 291.91 110.09 C 297.60 112.06 303.34 113.89 308.92 116.16 C 318.32 118.70 327.37 122.32 336.64 125.27 C 345.89 129.39 355.54 132.50 365.09 135.85 C 369.58 137.31 373.12 140.48 377.02 142.99 C 380.36 145.26 383.92 147.31 386.69 150.32 C 396.57 159.80 406.13 169.65 414.48 180.51 C 419.84 186.18 424.69 192.28 429.77 198.18 C 433.41 204.12 438.55 208.93 442.09 214.92 C 443.64 217.35 445.09 219.85 446.71 222.24 C 451.72 229.39 454.98 237.54 458.79 245.34 C 465.13 256.02 467.24 268.43 470.94 280.12 C 472.76 285.28 473.27 290.76 475.05 295.93 C 477.68 306.28 477.27 317.08 478.73 327.60 C 478.20 327.50 477.12 327.29 476.58 327.19 C 474.90 324.53 472.84 322.07 471.34 319.34 C 467.96 310.83 462.13 303.51 456.91 296.05 C 451.03 288.33 445.26 280.48 438.37 273.62 C 430.82 266.50 423.75 258.79 415.45 252.52 C 407.64 247.73 399.15 244.00 390.34 241.47 C 383.64 239.43 376.81 235.63 369.62 237.49 C 360.57 239.65 352.77 245.07 345.43 250.55 C 337.74 244.96 327.95 245.90 319.02 244.80 C 313.96 244.54 308.84 244.63 303.85 245.59 C 300.46 246.20 297.46 247.98 294.24 249.11 C 295.08 243.35 296.42 237.66 298.15 232.10 C 299.43 227.90 299.70 223.45 301.37 219.36 C 305.13 209.33 306.04 198.58 308.29 188.18 C 310.47 180.11 310.96 171.58 309.60 163.33 C 307.93 157.20 300.79 156.25 297.53 151.41 C 294.64 147.67 290.61 145.03 287.82 141.20 C 283.59 135.44 277.44 131.61 272.37 126.69 C 267.37 121.71 261.71 117.25 257.91 111.21 C 256.57 108.68 255.11 105.53 256.77 102.79 Z" />
<path fill="#29282b" opacity="0.44" d=" M 179.31 112.27 C 182.89 110.38 185.92 107.37 189.78 106.11 C 189.60 108.30 188.75 110.59 189.79 112.71 C 189.71 112.94 189.56 113.41 189.49 113.64 C 189.16 113.46 188.50 113.11 188.17 112.94 C 187.30 115.57 186.54 118.25 185.63 120.88 C 182.36 119.59 183.63 115.69 183.71 113.02 C 181.81 114.05 182.30 116.60 181.62 118.34 C 180.02 116.98 181.41 114.52 181.09 112.73 C 178.95 113.97 178.99 117.85 176.16 117.90 C 176.20 115.60 177.02 113.20 179.31 112.27 Z" />
<path fill="#29282b" opacity="0.44" d=" M 206.83 124.71 C 213.72 122.88 220.89 122.04 228.03 122.14 C 233.00 122.22 237.97 121.27 242.93 121.96 C 244.33 122.25 244.42 123.90 244.89 124.97 C 247.40 132.09 252.10 138.16 254.98 145.10 C 246.39 142.55 237.56 140.79 229.02 138.04 C 223.77 136.74 218.14 136.49 213.35 133.71 C 210.97 133.76 208.57 133.92 206.20 133.63 C 204.95 130.94 205.62 127.25 206.83 124.71 Z" />
<path fill="#29282b" opacity="0.44" d=" M 247.76 127.64 C 250.47 129.45 252.15 132.32 254.22 134.76 C 256.69 137.94 260.39 139.87 262.67 143.23 C 269.05 150.18 276.16 156.42 282.47 163.45 C 284.73 166.52 288.20 168.72 289.57 172.40 C 290.62 177.43 289.86 182.61 289.47 187.67 C 287.42 197.05 285.91 206.62 282.47 215.63 C 279.83 222.11 276.85 228.43 273.62 234.63 C 273.15 235.89 272.08 236.72 270.93 237.33 C 273.27 229.10 274.84 220.61 275.13 212.02 C 275.99 206.77 274.62 201.56 274.46 196.31 C 274.23 190.23 271.52 184.68 270.41 178.77 C 268.95 169.47 264.86 160.89 260.42 152.69 C 257.10 143.90 251.01 136.44 247.76 127.64 Z" />
<path fill="#29282b" opacity="0.44" d=" M 212.25 141.35 C 228.33 144.55 244.26 148.70 259.69 154.19 C 264.22 162.22 267.82 170.86 269.37 179.99 C 270.06 183.97 271.50 187.76 272.56 191.64 C 275.00 205.71 274.48 220.36 270.34 234.07 C 269.53 238.09 267.90 242.44 264.36 244.80 C 261.38 241.13 259.51 236.76 257.53 232.53 C 250.77 220.06 246.79 206.33 240.38 193.69 C 239.11 190.34 237.61 187.09 236.32 183.75 C 235.51 179.91 235.59 175.39 232.40 172.56 C 229.27 168.86 224.00 168.61 220.37 165.62 C 218.50 164.12 216.84 162.37 215.34 160.52 C 217.02 158.68 218.49 156.59 219.09 154.13 C 216.85 154.10 214.23 155.45 212.36 153.61 C 210.33 149.81 211.15 145.30 212.25 141.35 Z" />
<path fill="#29282b" opacity="0.44" d=" M 191.47 197.40 C 194.35 194.91 197.02 192.20 199.96 189.78 C 201.38 191.54 200.89 193.94 201.08 196.03 C 200.74 202.37 201.15 208.72 200.79 215.06 C 198.68 229.28 197.17 243.65 197.70 258.05 C 197.94 266.36 196.28 274.88 198.60 283.01 C 199.18 285.67 198.79 288.48 199.75 291.07 C 200.51 293.36 201.41 295.65 201.57 298.10 C 201.84 303.93 204.94 309.04 206.51 314.55 C 209.58 324.60 216.82 332.63 224.42 339.58 C 229.97 343.34 234.95 347.89 240.75 351.28 L 240.79 352.01 C 234.57 349.62 228.99 345.91 222.99 343.06 C 214.92 336.78 205.78 331.72 198.96 323.95 C 192.78 315.91 187.22 307.40 182.62 298.37 C 179.36 290.59 176.59 282.58 174.55 274.40 C 173.30 264.58 170.31 254.96 170.83 244.96 C 171.16 235.34 168.57 225.85 169.16 216.27 C 172.49 213.88 174.93 210.62 177.32 207.35 C 181.63 203.47 187.14 201.25 191.47 197.40 Z" />
<path fill="#29282b" opacity="0.44" d=" M 369.63 454.23 C 374.08 458.65 378.57 463.05 382.86 467.63 C 375.47 467.50 368.20 468.88 360.88 469.57 C 359.21 469.86 358.05 468.34 356.70 467.69 C 356.99 468.65 357.26 469.63 357.50 470.62 C 352.07 472.13 346.64 473.73 341.11 474.81 C 339.40 474.45 338.14 473.06 336.59 472.35 C 337.27 473.43 337.95 474.50 338.64 475.59 C 337.77 476.59 336.31 476.70 335.17 477.22 C 331.56 478.36 328.31 480.37 324.69 481.45 C 325.04 480.74 325.75 479.32 326.11 478.61 C 329.78 476.05 333.16 471.52 331.28 466.86 C 337.66 470.58 345.76 468.08 351.17 463.74 C 352.26 464.21 353.34 464.70 354.43 465.20 C 354.07 464.19 353.73 463.18 353.39 462.18 C 359.53 462.61 367.81 461.17 369.63 454.23 Z" />
<path fill="#29282b" opacity="0.44" d=" M 371.55 453.69 C 377.24 454.80 381.91 458.98 387.78 459.44 C 389.26 459.82 390.56 458.88 391.90 458.41 C 393.76 460.12 395.35 462.11 397.16 463.88 C 398.93 465.71 401.40 466.71 403.05 468.68 C 397.00 468.64 391.05 467.56 385.03 467.29 C 382.90 466.08 381.38 464.06 379.61 462.41 C 376.89 459.53 373.66 457.07 371.55 453.69 Z" />
<path fill="#29282b" opacity="0.44" d=" M 366.03 473.41 C 371.73 472.94 377.48 471.43 383.20 472.54 C 389.53 471.47 395.93 473.00 402.27 473.32 C 398.81 478.23 395.92 483.50 392.62 488.51 C 389.91 492.48 388.93 497.35 386.22 501.31 C 384.02 499.67 381.97 497.35 379.01 497.33 C 372.40 496.75 368.25 502.97 363.62 506.62 C 364.00 503.71 365.58 501.20 366.47 498.46 C 363.21 499.67 363.89 504.11 361.41 506.01 C 361.29 501.79 361.04 496.48 356.98 494.05 C 354.87 492.55 352.22 492.76 349.77 492.71 C 352.12 486.21 355.87 480.34 359.48 474.49 C 361.55 473.67 363.85 473.71 366.03 473.41 M 381.36 474.03 C 375.42 481.23 369.64 488.82 366.42 497.68 L 367.77 496.98 C 370.74 491.68 373.21 486.01 377.23 481.35 C 379.00 478.67 381.67 476.51 382.66 473.38 L 381.36 474.03 Z" />
<path fill="#29282b" opacity="0.44" d=" M 405.33 473.42 C 410.63 473.12 415.69 475.28 420.71 476.67 C 423.32 478.17 426.45 476.90 429.18 478.10 C 424.61 479.73 420.87 482.78 417.00 485.59 C 417.43 484.16 417.87 482.74 418.31 481.33 C 416.07 482.96 414.85 485.48 413.31 487.69 C 408.76 484.66 401.78 485.61 398.68 490.28 C 397.36 491.86 396.02 493.47 394.41 494.77 C 392.78 495.95 391.26 497.25 389.60 498.39 C 391.30 491.35 396.25 485.86 399.62 479.63 C 401.09 477.25 402.62 474.54 405.33 473.42 Z" />
<path fill="#29282b" opacity="0.44" d=" M 342.74 478.62 C 347.54 476.95 352.55 475.89 357.53 474.86 C 354.40 480.51 350.93 486.01 348.51 492.05 C 346.80 490.71 347.04 488.08 345.36 486.68 C 343.07 484.20 339.41 485.17 336.59 485.96 C 337.90 483.03 339.36 479.59 342.74 478.62 Z" />
</g>
<g id="#5d5d4870">
<path fill="#5d5d48" opacity="0.44" d=" M 143.33 58.30 C 145.30 54.32 146.19 49.95 147.78 45.84 C 145.96 56.18 142.37 66.41 142.82 77.08 C 141.59 89.22 142.59 101.51 145.69 113.29 C 146.85 117.08 149.25 120.35 150.46 124.13 C 148.88 126.27 146.50 127.50 144.05 128.38 C 141.74 126.16 141.60 122.67 140.05 119.97 C 136.25 111.16 137.58 101.37 136.99 92.05 C 137.08 80.55 139.47 69.12 143.33 58.30 Z" />
<path fill="#5d5d48" opacity="0.44" d=" M 187.88 45.39 C 190.31 48.70 190.41 53.06 192.36 56.63 C 193.69 62.47 195.78 68.10 197.11 73.93 C 199.73 86.45 198.87 99.35 196.67 111.85 C 194.84 116.71 194.07 121.86 192.61 126.83 C 190.24 127.14 187.24 126.19 186.22 123.88 C 186.80 120.36 188.37 117.03 189.49 113.64 C 189.56 113.41 189.71 112.94 189.79 112.71 C 191.93 102.63 193.76 92.39 192.98 82.04 C 191.53 69.79 190.92 57.34 187.88 45.39 Z" />
<path fill="#5d5d48" opacity="0.44" d=" M 170.36 196.52 C 171.15 195.03 172.92 194.46 173.76 192.99 C 173.77 193.34 173.81 194.03 173.82 194.38 C 172.74 195.11 172.14 196.18 172.02 197.57 C 171.03 198.72 170.48 198.38 170.36 196.52 Z" />
<path fill="#5d5d48" opacity="0.44" d=" M 173.85 196.93 C 175.06 197.86 176.08 198.98 177.08 200.12 C 175.25 201.86 173.44 203.43 172.61 205.96 C 172.10 205.19 171.66 204.39 171.29 203.55 C 171.11 202.30 171.05 201.04 171.12 199.78 C 172.53 200.26 173.26 201.59 174.25 202.60 C 174.09 200.71 173.55 198.84 173.85 196.93 Z" />
<path fill="#5d5d48" opacity="0.44" d=" M 153.14 208.01 C 153.64 207.78 154.63 207.33 155.12 207.11 C 154.15 208.87 154.58 210.56 156.29 211.59 C 156.55 210.90 157.07 209.50 157.33 208.80 C 157.61 210.43 157.77 212.06 158.02 213.70 C 157.34 213.69 155.98 213.68 155.30 213.68 C 155.30 211.33 153.04 210.39 153.14 208.01 Z" />
</g>
<g id="#42220670">
<path fill="#422206" opacity="0.44" d=" M 174.33 148.34 C 178.59 144.89 183.79 151.20 182.45 155.40 C 181.34 156.67 179.61 157.01 178.02 157.18 C 179.11 155.77 181.57 154.53 180.53 152.41 C 180.12 149.45 175.17 149.08 174.52 152.03 C 173.51 154.46 176.07 156.05 177.20 157.85 C 175.83 158.12 174.45 158.24 173.07 158.20 C 172.93 154.90 172.54 151.30 174.33 148.34 Z" />
</g>
<g id="#2c2c2c6d">
<path fill="#2c2c2c" opacity="0.43" d=" M 676.99 156.50 C 674.89 153.71 673.66 149.57 674.74 146.24 C 675.76 147.37 676.22 148.65 676.14 150.09 C 675.76 151.21 675.92 152.21 676.61 153.11 L 677.19 153.89 C 677.14 154.55 677.04 155.85 676.99 156.50 Z" />
</g>
<g id="#301a0870">
<path fill="#301a08" opacity="0.44" d=" M 146.33 155.65 C 146.42 153.35 146.60 150.54 148.76 149.20 C 149.83 149.77 150.49 150.81 150.85 151.95 C 149.39 153.01 148.35 156.72 146.33 155.65 Z" />
</g>
<g id="#0000005f">
<path fill="#000000" opacity="0.37" d=" M 676.14 150.09 C 677.54 150.71 677.69 151.71 676.61 153.11 C 675.92 152.21 675.76 151.21 676.14 150.09 Z" />
</g>
<g id="#3b3b3b70">
<path fill="#3b3b3b" opacity="0.44" d=" M 176.40 150.96 C 178.94 150.90 175.34 154.74 175.19 152.31 C 175.50 151.97 176.10 151.29 176.40 150.96 Z" />
</g>
<g id="#43230770">
<path fill="#432307" opacity="0.44" d=" M 149.40 157.06 C 150.83 156.65 151.36 157.16 150.98 158.60 C 149.64 158.95 149.12 158.43 149.40 157.06 Z" />
</g>
<g id="#5a5e4870">
<path fill="#5a5e48" opacity="0.44" d=" M 190.16 178.11 L 190.98 178.13 L 190.96 178.95 L 190.14 178.93 L 190.16 178.11 Z" />
</g>
<g id="#47423370">
<path fill="#474233" opacity="0.44" d=" M 187.04 179.12 C 188.70 178.64 189.19 179.21 188.50 180.82 C 186.92 181.46 186.44 180.90 187.04 179.12 Z" />
</g>
<g id="#4a463670">
<path fill="#4a4636" opacity="0.44" d=" M 182.64 182.12 C 183.27 181.64 184.52 180.70 185.15 180.23 C 186.44 181.55 185.75 184.10 186.49 185.89 C 185.94 186.28 184.85 187.06 184.30 187.44 C 184.49 186.44 184.64 185.43 184.75 184.42 C 184.07 183.62 183.37 182.86 182.64 182.12 Z" />
</g>
<g id="#2a000170">
<path fill="#2a0001" opacity="0.44" d=" M 182.19 183.17 C 182.30 182.91 182.53 182.38 182.64 182.12 C 183.37 182.86 184.07 183.62 184.75 184.42 C 184.64 185.43 184.49 186.44 184.30 187.44 C 184.03 188.33 183.68 189.18 183.26 190.01 C 183.54 187.04 180.76 188.72 181.83 190.74 L 181.93 191.85 L 180.97 191.83 C 180.52 191.69 179.61 191.41 179.15 191.27 C 178.87 192.38 178.83 193.52 179.03 194.70 C 179.07 195.86 178.83 196.98 178.30 198.04 C 178.90 197.16 177.73 193.73 176.90 195.83 C 176.96 196.53 177.07 197.94 177.13 198.65 L 177.08 200.12 C 176.08 198.98 175.06 197.86 173.85 196.93 C 173.55 198.84 174.09 200.71 174.25 202.60 C 173.26 201.59 172.53 200.26 171.12 199.78 C 171.05 201.04 171.11 202.30 171.29 203.55 L 170.39 203.89 C 169.58 202.37 169.22 200.68 168.64 199.07 L 168.57 198.81 C 169.07 197.98 169.72 197.25 170.36 196.52 C 170.48 198.38 171.03 198.72 172.02 197.57 C 172.14 196.18 172.74 195.11 173.82 194.38 C 175.50 195.18 175.94 191.78 174.17 192.05 C 175.52 190.77 176.59 188.90 178.49 188.44 C 179.93 188.52 180.49 186.78 179.67 185.77 L 179.47 185.30 C 179.78 184.97 180.42 184.31 180.73 183.97 C 180.67 186.81 183.29 185.09 182.19 183.17 Z" />
</g>
<g id="#4e4e3c70">
<path fill="#4e4e3c" opacity="0.44" d=" M 180.73 183.97 C 181.10 183.77 181.83 183.37 182.19 183.17 C 183.29 185.09 180.67 186.81 180.73 183.97 Z" />
</g>
<g id="#504e3c70">
<path fill="#504e3c" opacity="0.44" d=" M 187.11 183.13 L 187.89 183.15 L 187.87 183.93 L 187.09 183.91 L 187.11 183.13 Z" />
</g>
<g id="#25252770">
<path fill="#252527" opacity="0.44" d=" M 218.01 184.63 C 219.93 185.99 220.84 188.22 221.56 190.38 C 225.21 201.22 228.98 212.17 230.96 223.44 C 226.72 217.32 225.80 209.70 222.96 202.95 C 221.15 196.90 218.64 190.95 218.01 184.63 Z" />
<path fill="#252527" opacity="0.44" d=" M 211.69 436.10 C 212.75 435.11 213.91 434.23 215.16 433.51 C 216.96 434.52 215.38 436.61 214.64 437.78 C 213.28 438.38 212.48 436.90 211.69 436.10 Z" />
</g>
<g id="#4c4d3c70">
<path fill="#4c4d3c" opacity="0.44" d=" M 179.67 185.77 C 180.49 186.78 179.93 188.52 178.49 188.44 C 178.78 187.78 179.37 186.44 179.67 185.77 Z" />
</g>
<g id="#50534070">
<path fill="#505340" opacity="0.44" d=" M 181.83 190.74 C 180.76 188.72 183.54 187.04 183.26 190.01 C 182.90 190.20 182.18 190.56 181.83 190.74 Z" />
</g>
<g id="#4d4b3a70">
<path fill="#4d4b3a" opacity="0.44" d=" M 179.15 191.27 C 179.61 191.41 180.52 191.69 180.97 191.83 C 181.41 192.95 180.39 195.22 179.03 194.70 C 178.83 193.52 178.87 192.38 179.15 191.27 Z" />
</g>
<g id="#4e503f70">
<path fill="#4e503f" opacity="0.44" d=" M 174.17 192.05 C 175.94 191.78 175.50 195.18 173.82 194.38 C 173.81 194.03 173.77 193.34 173.76 192.99 L 174.17 192.05 Z" />
</g>
<g id="#595b4670">
<path fill="#595b46" opacity="0.44" d=" M 176.90 195.83 C 177.73 193.73 178.90 197.16 178.30 198.04 C 178.01 198.19 177.42 198.50 177.13 198.65 C 177.07 197.94 176.96 196.53 176.90 195.83 Z" />
</g>
<g id="#32241e70">
<path fill="#32241e" opacity="0.44" d=" M 168.64 199.07 C 169.22 200.68 169.58 202.37 170.39 203.89 C 171.55 205.53 172.03 208.00 170.10 209.32 C 167.93 211.36 165.44 214.56 162.13 213.85 C 161.94 212.54 161.71 211.25 161.43 209.96 C 161.12 210.20 160.48 210.67 160.16 210.91 C 160.05 211.73 159.83 213.36 159.72 214.18 C 159.29 214.06 158.45 213.82 158.02 213.70 C 157.77 212.06 157.61 210.43 157.33 208.80 C 157.07 209.50 156.55 210.90 156.29 211.59 C 154.58 210.56 154.15 208.87 155.12 207.11 L 155.94 206.76 C 156.43 206.98 157.41 207.43 157.90 207.66 C 157.92 207.03 157.95 205.77 157.96 205.14 L 158.93 205.19 C 158.78 206.27 159.53 208.01 160.79 207.86 C 161.34 207.00 161.74 206.08 162.01 205.10 C 164.30 203.13 167.21 201.91 168.64 199.07 Z" />
</g>
<g id="#50503e70">
<path fill="#50503e" opacity="0.44" d=" M 153.14 208.01 C 151.44 208.14 151.36 204.94 153.04 204.81 C 154.93 205.10 152.49 206.92 153.14 208.01 Z" />
</g>
<g id="#4d4d3c70">
<path fill="#4d4d3c" opacity="0.44" d=" M 155.94 206.76 C 155.72 205.08 156.40 204.54 157.96 205.14 C 157.95 205.77 157.92 207.03 157.90 207.66 C 157.41 207.43 156.43 206.98 155.94 206.76 Z" />
</g>
<g id="#53503e70">
<path fill="#53503e" opacity="0.44" d=" M 158.93 205.19 C 159.70 205.17 161.24 205.12 162.01 205.10 C 161.74 206.08 161.34 207.00 160.79 207.86 C 159.53 208.01 158.78 206.27 158.93 205.19 Z" />
</g>
<g id="#52513f70">
<path fill="#52513f" opacity="0.44" d=" M 160.16 210.91 C 160.48 210.67 161.12 210.20 161.43 209.96 C 161.71 211.25 161.94 212.54 162.13 213.85 C 161.53 213.93 160.32 214.10 159.72 214.18 C 159.83 213.36 160.05 211.73 160.16 210.91 Z" />
</g>
<g id="#3333336f">
<path fill="#333333" opacity="0.44" d=" M 683.07 289.94 C 684.70 289.46 686.20 293.54 684.51 293.88 C 683.92 292.67 682.95 291.30 683.07 289.94 Z" />
</g>
<g id="#2b2b2b6b">
<path fill="#2b2b2b" opacity="0.42" d=" M 482.11 333.06 L 482.92 332.65 C 483.08 334.18 483.22 335.73 483.34 337.27 C 482.80 339.04 482.55 341.16 481.05 342.42 C 481.40 339.29 482.03 336.21 482.11 333.06 Z" />
</g>
<g id="#37373770">
<path fill="#373737" opacity="0.44" d=" M 595.71 371.05 C 594.88 369.41 593.86 365.98 595.69 365.03 C 596.42 366.74 595.84 368.75 596.05 370.58 L 595.71 371.05 Z" />
</g>
<g id="#2b2b2b67">
<path fill="#2b2b2b" opacity="0.40" d=" M 122.95 389.58 C 124.21 388.53 125.54 388.37 126.96 389.09 C 126.03 390.43 124.21 390.44 122.95 389.58 Z" />
</g>
<g id="#1d1d1d69">
<path fill="#1d1d1d" opacity="0.41" d=" M 115.28 398.09 C 114.92 396.58 117.91 395.26 119.03 396.19 C 118.90 398.17 116.81 398.28 115.28 398.09 Z" />
</g>
<g id="#27272669">
<path fill="#272726" opacity="0.41" d=" M 115.85 404.51 C 116.26 403.36 117.75 401.47 119.06 402.08 C 118.97 403.67 117.53 405.32 115.85 404.51 Z" />
</g>
<g id="#20202270">
<path fill="#202022" opacity="0.44" d=" M 142.21 404.38 C 143.75 403.50 145.38 402.81 147.05 402.24 C 146.42 404.49 144.63 406.64 142.16 406.80 C 142.17 406.20 142.20 404.99 142.21 404.38 Z" />
</g>
<g id="#2d2d2d70">
<path fill="#2d2d2d" opacity="0.44" d=" M 351.04 403.94 L 351.78 403.49 C 352.03 403.82 352.54 404.49 352.79 404.83 L 352.13 405.16 C 351.86 404.86 351.31 404.25 351.04 403.94 Z" />
</g>
<g id="#1d1d1c66">
<path fill="#1d1d1c" opacity="0.40" d=" M 121.91 411.99 C 120.76 408.98 124.13 406.25 126.67 405.51 C 126.54 406.92 125.72 408.10 124.99 409.27 C 124.02 410.23 122.98 411.13 121.91 411.99 Z" />
</g>
<g id="#23232570">
<path fill="#232325" opacity="0.44" d=" M 373.22 408.05 C 374.88 407.01 376.14 409.88 374.05 410.09 C 372.47 410.77 371.32 408.48 373.22 408.05 Z" />
</g>
<g id="#2929296d">
<path fill="#292929" opacity="0.43" d=" M 138.77 412.45 C 139.05 410.90 139.90 409.91 141.32 409.48 C 142.01 411.03 140.48 413.18 138.77 412.45 Z" />
</g>
<g id="#32323170">
<path fill="#323231" opacity="0.44" d=" M 353.48 409.81 C 354.27 410.99 352.81 414.33 351.58 412.18 C 352.06 411.59 353.01 410.41 353.48 409.81 Z" />
</g>
<g id="#26262566">
<path fill="#262625" opacity="0.40" d=" M 199.25 422.14 C 199.20 420.86 199.90 420.06 201.33 419.72 C 202.91 421.07 200.50 422.21 199.25 422.14 Z" />
</g>
<g id="#28282769">
<path fill="#282827" opacity="0.41" d=" M 392.88 423.41 C 393.41 421.68 395.43 420.49 397.21 420.72 C 398.21 422.83 394.36 423.22 392.88 423.41 Z" />
</g>
<g id="#1c1c1c60">
<path fill="#1c1c1c" opacity="0.38" d=" M 391.45 432.17 C 392.20 430.11 394.02 428.54 395.96 427.59 C 395.80 430.15 393.56 431.35 391.45 432.17 Z" />
</g>
<g id="#21212370">
<path fill="#212123" opacity="0.44" d=" M 208.30 430.10 C 211.04 429.37 209.03 432.59 207.50 432.56 C 205.84 432.33 207.21 430.14 208.30 430.10 Z" />
</g>
<g id="#1d1d1d63">
<path fill="#1d1d1d" opacity="0.39" d=" M 193.00 437.23 C 192.21 434.45 194.34 431.92 196.44 430.41 C 196.70 432.06 195.58 433.43 195.01 434.90 C 194.55 435.83 193.88 436.61 193.00 437.23 Z" />
</g>
<g id="#2626266e">
<path fill="#262626" opacity="0.43" d=" M 397.58 438.19 C 397.71 435.65 400.12 433.43 402.32 432.55 C 401.71 435.08 399.50 436.66 397.58 438.19 Z" />
</g>
<g id="#24232670">
<path fill="#242326" opacity="0.44" d=" M 411.63 433.21 C 413.05 431.81 414.64 433.87 413.19 435.10 C 412.24 436.66 410.62 434.09 411.63 433.21 Z" />
<path fill="#242326" opacity="0.44" d=" M 330.08 482.36 C 332.75 481.69 335.40 480.96 338.08 480.33 C 337.05 482.51 335.80 484.61 334.08 486.33 C 333.36 485.81 332.70 485.25 332.10 484.63 C 331.40 483.88 330.73 483.12 330.08 482.36 Z" />
</g>
<g id="#22212370">
<path fill="#222123" opacity="0.44" d=" M 218.09 440.93 C 219.05 439.06 220.45 437.47 221.98 436.06 C 222.28 438.15 221.62 440.25 220.26 441.86 C 219.72 441.63 218.64 441.16 218.09 440.93 Z" />
</g>
<g id="#1e1e1e68">
<path fill="#1e1e1e" opacity="0.41" d=" M 408.72 445.86 C 408.32 443.37 409.81 441.16 411.07 439.18 C 411.73 440.51 411.36 441.93 411.17 443.32 C 410.55 444.36 409.74 445.20 408.72 445.86 Z" />
</g>
<g id="#20202067">
<path fill="#202020" opacity="0.40" d=" M 198.47 441.93 C 199.32 443.74 197.85 445.69 196.03 446.04 C 195.75 444.54 197.14 442.62 198.47 441.93 Z" />
</g>
<g id="#3f3f3f70">
<path fill="#3f3f3f" opacity="0.44" d=" M 208.02 447.92 C 208.18 448.10 208.52 448.48 208.68 448.67 L 207.99 448.71 L 208.02 447.92 Z" />
</g>
<g id="#24242670">
<path fill="#242426" opacity="0.44" d=" M 396.54 460.73 C 399.48 461.55 402.07 463.30 405.03 464.09 C 405.47 464.30 406.34 464.71 406.78 464.91 C 409.52 468.25 413.76 469.51 417.96 469.13 L 418.29 470.30 C 414.05 469.90 409.67 469.67 405.64 468.24 C 402.34 466.12 398.41 464.38 396.54 460.73 Z" />
</g>
</svg>
